<svg xmlns="http://www.w3.org/2000/svg" viewBox="0 0 352 220.5"><path d="M329.1 17.2c-5.2-4.1-11.4-9.7-22.7-11.1-10.6-1.4-21.4 5.7-28.7 10.4-7.3 4.7-21.1 18.5-26.8 22.7-5.7 4.2-20.3 8.1-43.8 22.2S91.4 134.7 91.4 134.7l24 .3-107 55.1h10.7L3.7 201.8s13.6 3.6 25-3.6v3.3s127.4-50.2 152-37.2l-15 4.4c1.3 0 25.5 1.6 25.5 1.6s.8 15.1 15.4 24.8c14.6 9.6 14.9 14.9 14.9 14.9s-7.6 3.1-7.6 7c0 0 11.2-3.4 21.6-3.1S255 217 255 217s-.8-4.2-10.9-7c-10.2-2.9-20.1-13.8-25-19.8s-8.3-16.7-4.1-27.4c3.5-9.1 15.7-14.1 40.9-27.1 29.7-15.4 36.5-26.8 40.7-35.7s10.4-26.6 13.9-34.9c4.4-10.7 9.8-16.4 14.3-19.8 4.4-3.4 24.5-10.9 24.5-10.9S334 21.1 329.1 17.2z" fill="#fff"/></svg>