<svg version="1.1" id="Layer_1" xmlns="http://www.w3.org/2000/svg" x="0" y="0" viewBox="0 0 250 48" xml:space="preserve"><style>.st0{fill:#231f20}</style><path class="st0" d="M57.6 11.5c-.9 0-1.7.6-1.9 1.5l-5.6 26c-.3 1.2.7 2.3 1.9 2.3.9 0 1.7-.6 1.9-1.5l5.7-26c.1-1.1-.8-2.3-2-2.3m79.2 21s-1.1 2.4-2.2 3.5-2.3 1.6-3.7 1.6c-1 0-1.9-.4-2.5-1.1-.6-.7-.9-1.7-.9-3 0-2.5.6-4.7 1.9-6.4 1.3-1.7 2.9-2.6 4.8-2.6 2.2 0 3.3 1.3 3.3 3.9.1 1.4-.2 2.7-.7 4.1M115.7 28c-.7 3.3-1.7 5.7-3 7.3-1.3 1.6-2.7 2.3-4.1 2.3-.8 0-1.5-.4-2.1-1.2-.5-.8-.8-1.8-.8-3.1 0-2.6.6-4.7 1.9-6.3 1.3-1.7 2.9-2.5 5-2.5 1.1 0 2.3.5 3.5 1.4l-.4 2.1zm43 2.3c-.9-.3-1.9.1-2.3 1-1.7 4.2-3.8 6.3-6.3 6.3-1.3 0-2-1.1-2-3.3 0-1.2.4-3.7 1.1-7.2l.6-2.5h5.2c.9 0 1.7-.6 1.8-1.5.3-1.2-.7-2.2-1.8-2.2h-4.4l.9-4.2c.3-1.2-.7-2.3-1.9-2.3-.9 0-1.7.6-1.9 1.5l-1.1 5h-12.1c-3.1 0-5.7 1.3-7.7 3.8-2.1 2.5-3.1 5.5-3.1 8.9 0 .9.1 1.8.3 2.6-1 1-2 1.5-3.2 1.5-.8 0-1.3-.2-1.6-.7-.3-.4-.5-1.2-.5-2.2 0-1.4.3-3.6.9-6.4l3.2-14.5c.3-1.2-.7-2.3-1.9-2.3-.9 0-1.7.7-1.9 1.5l-1.9 8.9c-1.4-.8-2.7-1.1-4.2-1.1-3.1 0-5.8 1.2-7.9 3.6-2.1 2.4-3.1 5.5-3.1 9.1 0 1.2.1 2.2.4 3.1-.8.7-1.7 1-2.7 1-.8 0-1.3-.2-1.7-.7-.4-.4-.6-1.2-.6-2.2 0-.9.2-2.3.6-4.3.2-1.1-.6-2.2-1.8-2.3-1-.1-1.9.5-2.1 1.4-.7 2.5-1.6 4.4-2.7 5.7-1.2 1.6-2.6 2.4-4 2.4-.8 0-1.5-.4-2.1-1.2-.5-.8-.8-1.8-.8-3.1 0-2.6.6-4.7 1.9-6.3 1.3-1.7 2.9-2.5 5-2.5 1 0 2.1.2 2.9.6.5.2 1.2.2 1.7-.1 1.3-.8 1.2-2.7-.2-3.3-.8-.3-1.2-.4-1.5-.5-.9-.2-2-.4-2.9-.4-3.1 0-5.7 1.2-7.8 3.6-1.1 1.3-2 2.8-2.5 4.4-1.8 5.9-4.2 8.8-7.1 8.8-1 0-1.7-.3-2.2-.9-.5-.6-.7-1.4-.7-2.3v-.8c1.8-.7 3.3-1.8 4.4-3.3 1.1-1.5 1.7-3.1 1.7-4.9 0-3-1.6-4.5-5-4.5-2.3 0-4.4.8-6.2 2.5L68 14c.3-1.2-.7-2.3-1.9-2.3-.9 0-1.7.6-1.9 1.5l-5.6 26c-.3 1.2.7 2.3 1.9 2.3.9 0 1.7-.6 1.9-1.5l1.8-8c.3-1 .7-2.1 1.2-3.1s1.4-2 2.6-2.9c1.1-.9 2.4-1.4 3.8-1.4 1 0 1.4.5 1.4 1.4 0 1.1-.6 2.2-1.8 3.2-1.2 1-2.5 1.7-3.9 1.9-.1 1.2-.2 2-.2 2.5 0 2.4.5 4.3 1.6 5.7 1.1 1.4 2.7 2.1 4.9 2.1 2.5 0 4.7-1.1 6.6-3.2.3-.3.5-.6.7-.9.3.7.7 1.4 1.1 1.9 1.2 1.4 2.8 2.2 4.9 2.2 2.6 0 4.8-1.2 6.6-3.7.8 2.5 2.6 3.7 5.7 3.7 1.7 0 3.3-.5 4.7-1.6 1.1 1.1 2.6 1.6 4.4 1.6 2.6 0 4.8-1.2 6.6-3.7.8 2.5 2.6 3.7 5.7 3.7 1.9 0 3.7-.7 5.2-2 1.3 1.3 2.9 2 4.9 2 2.9 0 5.3-1.2 7.4-3.6 1.4-1.7 1.9-2.8 2.2-3.5.8-1.8 1.1-3.8 1.1-5.7 0-1.5-.3-2.9-.7-4h5l-.5 2.2c-.8 3.7-1.2 6.3-1.2 7.6 0 4.7 1.9 7 5.8 7 4.3 0 7.6-2.9 9.9-8.6.4-1-.2-2.1-1.2-2.5zM41.3 36c-1.1 1.1-2.3 1.6-3.7 1.6-1 0-1.9-.4-2.5-1.1-.6-.7-.9-1.7-.9-3 0-2.5.6-4.7 1.9-6.4 1.2-1.7 2.9-2.6 4.8-2.6 2.2 0 3.3 1.3 3.3 3.9 0 4-1.8 6.6-2.9 7.6m-.2-15.2c-3.1 0-5.7 1.3-7.7 3.8s-3.1 5.5-3.1 8.9c0 2.3.7 4.2 1.9 5.6 1.3 1.4 3 2.2 5.2 2.2 2.9 0 5.3-1.2 7.4-3.6 1.4-1.7 1.9-2.8 2.2-3.5.8-1.8 1.1-3.8 1.1-5.7 0-2.3-.5-4.1-1.6-5.6-1.1-1.4-2.9-2.1-5.4-2.1m-23.9-15c-7.6 0-13.8 6.1-13.8 13.7 0 1.5.3 3 .7 4.4.3 1 1.4 1.5 2.5 1.2 1-.3 1.5-1.4 1.2-2.4-.4-1.1-.6-2.3-.5-3.5.1-5.1 4.3-9.3 9.5-9.5 5.7-.3 10.5 4.2 10.5 9.8 0 5.2-4.2 9.5-9.4 9.8 0 0-1.9.1-2.9.3-.5.1-.8.1-1.1.2-.1 0-.2-.1-.2-.2L14 28l1.8-8.1c.2-1-.4-2-1.5-2.2-1-.2-2.1.4-2.3 1.4 0 0-4.3 19.9-4.4 20.1-.2 1 .4 2 1.5 2.2 1 .2 2.1-.4 2.3-1.4 0-.2.6-2.9.6-2.9.4-2 2.1-3.5 4.1-3.8.4-.1 2.2-.2 2.2-.2 7.1-.5 12.7-6.4 12.7-13.6 0-7.6-6.1-13.7-13.8-13.7"/><path d="M162.8 37.2c-1.2-.3-2.5.5-2.7 1.8-.3 1.2.5 2.5 1.8 2.7 1.3.3 2.5-.5 2.7-1.8.2-1.2-.6-2.4-1.8-2.7" fill="#e6007a"/><path class="st0" d="M189.6 41.5h-2.3L179.6 17h2l6.8 23.1 6.4-23.1h2.2l6.4 23.1 6.9-23.1h1.9l-7.7 24.6h-2.3l-5-17.2-1.4-5.3-1.4 5.3-4.8 17.1zm26.9-22.6c-.3-.3-.4-.7-.4-1.1 0-.5.1-.9.4-1.1.3-.3.7-.4 1.1-.4s.9.1 1.1.4c.3.3.4.7.4 1.1 0 .5-.1.9-.4 1.1-.3.3-.7.4-1.1.4s-.8-.1-1.1-.4zm2.1 22.6h-1.9V22.9h1.9v18.6zm12.9-9.8l-4.4 4.2v5.6h-1.9V14.3h1.9v19.2l11.1-10.7h2.4l-7.7 7.5 8 11.2h-2.3l-7.1-9.8zm13.1-12.8c-.3-.3-.4-.7-.4-1.1 0-.5.1-.9.4-1.1.3-.3.7-.4 1.1-.4s.9.1 1.1.4c.3.3.4.7.4 1.1 0 .5-.1.9-.4 1.1-.3.3-.7.4-1.1.4s-.8-.1-1.1-.4zm2.1 22.6h-1.9V22.9h1.9v18.6z"/></svg>